<?xml version="1.0" encoding="utf-8"?>
<!-- Generator: Adobe Illustrator 23.0.1, SVG Export Plug-In . SVG Version: 6.00 Build 0)  -->
<svg version="1.1" id="Layer_1" xmlns="http://www.w3.org/2000/svg" xmlns:xlink="http://www.w3.org/1999/xlink" x="0px" y="0px"
	 viewBox="0 0 512 512" style="enable-background:new 0 0 512 512;" xml:space="preserve">
<path fill="#68B978" d="M21.6,323.3c8.5,8.5,22.2,8.5,30.6,0l70-70l114.6,114.6c8.5,8.5,22.2,8.5,30.6,0l149.2-149.2l39.9,39.9
	c20.5,20.5,55.4,6,55.4-23V99.1c0-12-9.7-21.7-21.7-21.7H353.8c-28.9,0-43.4,35-23,55.4l39.9,39.9L252.2,291.3L137.6,176.7
	c-8.5-8.5-22.2-8.5-30.6,0L6.3,277.3c-8.5,8.5-8.5,22.2,0,30.6C6.3,308,21.6,323.3,21.6,323.3z"/>
</svg>
